<svg width="1163" height="1133" viewBox="0 0 1163 1133" fill="none" xmlns="http://www.w3.org/2000/svg">
<path d="M240.855 910.705V696.201H398.911V786.518H730.075C793.298 786.518 806.594 726.307 805.34 696.201H963.396C970.922 831.677 873.078 899.415 794.05 906.942L240.855 910.705Z" fill="#D3D3D3"/>
<path fill-rule="evenodd" clip-rule="evenodd" d="M0 594.59V0H1162.84V1132.73H0V696.197H105.37V1016.07H1053.7V105.37H105.37V481.693H240.847V195.688H715.014C952.097 191.925 1012.31 447.824 854.253 530.615C880.596 536.887 933.281 571.258 948.334 628.459H782.752C778.989 618.424 763.183 598.353 730.067 598.353H0V594.59ZM699.947 316.105H398.888V481.687H699.947C745.671 481.687 782.738 444.62 782.738 398.896C782.738 353.172 745.671 316.105 699.947 316.105Z" fill="#D3D3D3"/>
<rect x="549.428" y="933.285" width="105.37" height="52.6852" fill="#D3D3D3"/>
</svg>
