<svg width="80" height="80" viewBox="0 0 80 80" fill="none" xmlns="http://www.w3.org/2000/svg">
<circle cx="40" cy="40" r="40" fill="#13670B"/>
<g clip-path="url(#clip0_972_314)">
<path d="M59.1874 56.8532L54.886 52.5893C57.523 48.6341 56.7095 43.3417 53.0066 40.34C49.3038 37.3384 43.9131 37.6094 40.5326 40.9618C37.1523 44.3141 36.8814 49.6626 39.9062 53.3373C42.9312 57.0122 48.2656 57.8164 52.2536 55.1981L56.5503 59.4668C57.088 59.9998 57.9576 59.9998 58.4954 59.4668L59.1826 58.7842C59.3111 58.6586 59.4134 58.5086 59.4834 58.343C59.5533 58.1774 59.5896 57.9995 59.5901 57.8197C59.5905 57.6399 59.5551 57.4619 59.486 57.2959C59.4168 57.13 59.3153 56.9795 59.1874 56.8532ZM52.1464 49.8684C51.5941 51.0152 50.6649 51.9378 49.5142 52.482C48.7663 52.842 47.9478 53.0338 47.1207 53.0385C44.0347 53.0385 41.5338 50.5558 41.5338 47.4981C41.5338 44.4356 44.0351 41.9577 47.1207 41.953C50.2064 41.953 52.7074 44.4309 52.7124 47.4934C52.7074 48.3488 52.497 49.1482 52.1464 49.8684ZM30.4155 49.228C29.6299 49.228 28.9988 48.5969 28.9942 47.8205C28.9942 47.0445 29.63 46.4133 30.4155 46.4133H34.8944C35.0114 45.0901 35.3432 43.823 35.8576 42.6589H30.4155C29.6299 42.6589 28.9988 42.028 28.9942 41.2516C28.9942 40.4756 29.63 39.8441 30.4155 39.8441H37.5875C38.9936 38.1334 40.8372 36.836 42.9222 36.09H30.4156C29.6302 36.09 28.999 35.459 28.9943 34.6826C28.9943 33.9066 29.6303 33.2753 30.4156 33.2753H52.2634C53.044 33.2753 53.6847 33.9064 53.6847 34.6826C53.68 35.4586 53.049 36.0853 52.2634 36.09H51.1928C55.0502 37.4693 57.9579 40.6765 58.9306 44.6317V24.3972C58.9352 22.0549 56.9995 20.1333 54.6339 20.1333H24.7115C22.3458 20.1333 20.4102 22.0502 20.4102 24.3972V54.857C20.4102 57.204 22.3458 59.1209 24.7115 59.1209H43.642C39.0507 57.7884 35.6611 53.922 34.9739 49.228H30.4155ZM30.4155 26.7021H52.2631C53.0438 26.7021 53.6844 27.333 53.6844 28.1094C53.6798 28.8854 53.0487 29.5122 52.2631 29.5168H30.4155C29.6299 29.5168 28.9942 28.8857 28.9942 28.1094C28.994 27.338 29.6299 26.7021 30.4155 26.7021Z" fill="white"/>
</g>
<defs>
<clipPath id="clip0_972_314">
<rect width="40" height="40" fill="white" transform="translate(20 20)"/>
</clipPath>
</defs>
</svg>
