<svg width="80" height="80" viewBox="0 0 80 80" fill="none" xmlns="http://www.w3.org/2000/svg">
<circle cx="40" cy="40" r="40" fill="#13670B"/>
<path d="M52.4216 36.9134C52.4216 29.4123 45.1971 23.3091 36.3166 23.3091C27.4358 23.3091 20.2113 29.4123 20.2113 36.9134C20.2113 40.2231 21.6318 43.4124 24.1753 45.8519C24.4907 46.3434 24.5323 48.9921 24.2634 51.5195L24.0465 53.5546L25.7587 52.4343C27.7142 51.1539 30.219 49.7827 30.9083 49.7345C32.6394 50.2544 34.4586 50.5185 36.3165 50.5185C45.1971 50.5186 52.4216 44.4153 52.4216 36.9134ZM28.5996 38.5469C27.5768 38.5517 26.7435 37.7249 26.7397 36.7022C26.7341 35.6794 27.5607 34.8461 28.5844 34.8404C29.6053 34.8357 30.4405 35.6633 30.4443 36.6851C30.4491 37.7098 29.6223 38.5422 28.5996 38.5469ZM36.3649 38.5469C35.3421 38.5517 34.5097 37.7249 34.505 36.7022C34.5003 35.6794 35.327 34.8461 36.3497 34.8404C37.3725 34.8357 38.2058 35.6633 38.2095 36.6851C38.2144 37.7098 37.3885 38.5422 36.3649 38.5469ZM43.735 38.5469C42.7122 38.5517 41.8798 37.7249 41.8751 36.7022C41.8704 35.6794 42.697 34.8461 43.7198 34.8404C44.7425 34.8357 45.5759 35.6633 45.5797 36.6851C45.5844 37.7098 44.7586 38.5422 43.735 38.5469Z" fill="white"/>
<path d="M59.452 40.2087C59.452 36.4037 57.5504 32.7484 54.2341 30.1792C53.8099 29.8525 53.2019 29.9283 52.8733 30.3525C52.7814 30.4709 52.7294 30.6035 52.7 30.7408C53.7928 32.7011 54.4216 34.881 54.4216 37.1879C54.4216 44.5468 48.2037 50.6993 39.9754 52.0999C39.8873 52.2231 39.8182 52.3604 39.7946 52.5204C39.7188 53.0507 40.0862 53.5421 40.6165 53.6188C43.3353 54.01 46.1724 53.8045 48.7539 53.0289C49.4433 53.0772 51.949 54.4484 53.9046 55.7287L55.6177 56.8499L55.3998 54.8139C55.13 52.2874 55.1707 49.6396 55.4529 49.1879C58.0305 46.7079 59.451 43.5184 59.452 40.2087Z" fill="white"/>
</svg>
