<svg width="197" height="60" viewBox="0 0 197 60" fill="none" xmlns="http://www.w3.org/2000/svg">
<g id="Frame" clip-path="url(#clip0_120_303)">
<path id="Vector" d="M44.0605 59.9649C41.3191 59.9131 38.3317 58.8774 35.6079 57.065C33.4465 55.6151 31.4432 53.9925 29.721 52.0593C29.352 51.645 29.1411 51.6623 28.7897 52.0765C26.8215 54.2342 24.6073 56.0984 22.0768 57.5829C17.9472 59.9822 13.6067 60.8797 9.00261 59.0155C2.25463 56.271 -0.873345 48.8487 1.93832 42.2031C5.08386 34.7808 8.6863 27.5828 12.3415 20.4022C14.5732 15.9833 16.8577 11.5817 19.1422 7.19735C20.4601 4.69447 22.0417 2.41599 24.7303 1.08687C29.0533 -1.03626 34.1143 -0.000581998 37.1719 3.67606C37.9803 4.65995 38.7008 5.69562 39.2983 6.83486C44.7986 17.3469 50.1583 27.9108 55.1666 38.6646C56.0276 40.5115 56.9766 42.3412 57.3983 44.3435C58.9799 51.9729 53.2687 59.9131 44.0605 59.9649ZM29.3344 22.0593C34.3954 22.042 38.6129 25.2871 39.5443 30.0685C40.1417 33.1755 39.3861 36.1617 38.1736 39.0443C36.7502 42.3757 34.7117 45.3446 32.4448 48.1755C32.1461 48.538 31.8649 48.8142 32.3394 49.3147C34.3778 51.4724 36.6096 53.4229 39.2631 54.8211C42.6547 56.6162 46.1165 56.8751 49.5257 54.8383C53.585 52.4045 54.9733 47.5196 52.8821 42.8763C48.2077 32.5541 43.1291 22.4217 37.91 12.3585C36.8556 10.3216 35.977 8.16397 34.5009 6.36881C32.9369 4.47007 30.8808 3.72784 28.4206 4.10759C25.8199 4.52186 24.3086 6.24798 23.1488 8.37111C22.3229 9.85557 21.5848 11.3918 20.794 12.8935C16.6468 20.7647 12.6578 28.7048 8.86203 36.7486C7.6495 39.3205 6.26124 41.8234 5.36503 44.5334C3.99434 48.6588 5.55833 52.9223 9.28378 55.0454C12.5523 56.9269 15.8912 56.6853 19.1597 55.0109C21.6727 53.7336 23.8517 51.9902 25.7671 49.9534C27.05 48.607 26.9094 49.0903 25.8726 47.7094C22.8852 43.8084 20.302 39.7175 19.2125 34.8671C17.6309 28.0144 22.3229 22.0765 29.3344 22.0593ZM22.9028 32.485C22.9203 32.6749 22.9203 33.1064 22.9555 33.538C22.973 33.7106 23.0258 33.8832 23.0609 34.0385C23.9396 38.3538 26.3646 41.8924 29.0005 45.3274C29.2993 45.7244 29.4574 45.6036 29.6859 45.2756C30.3185 44.378 31.0039 43.515 31.6189 42.6001C33.3235 40.08 34.8523 37.4735 35.5201 34.4873C36.0473 32.1053 36.0121 29.7923 34.2373 27.8245C32.4448 25.8395 29.5453 25.2181 26.9094 26.1847C24.291 27.1513 22.9028 29.2399 22.9028 32.485Z" fill="#EB5E65"/>
<path id="Vector_2" d="M179.052 42.9818C178.735 44.6389 178.735 44.6389 177.119 44.6389C176.099 44.6389 175.063 44.5698 174.043 44.6561C173.2 44.7252 173.059 44.3972 173.059 43.6377C173.077 35.4559 173.077 27.2741 173.077 19.1095C173.077 16.7275 173.094 14.3454 173.059 11.9634C173.059 11.3592 173.217 11.1694 173.833 11.1866C175.291 11.2212 176.75 11.2384 178.226 11.1866C178.929 11.1521 179.034 11.411 179.034 12.0152C179.017 15.8817 179.017 19.7655 179.017 23.632C179.104 23.6492 179.175 23.6838 179.192 23.6665C182.76 20.1107 189.191 21.2672 192.618 24.3224C196.361 27.6711 197.415 31.8656 196.238 36.5434C195.078 41.1694 191.915 43.9829 187.188 45.0186C184.218 45.6918 181.442 45.243 179.052 42.9818ZM190.808 33.3155C190.808 30.5019 189.455 28.4133 186.977 27.4122C184.341 26.342 181.424 26.8598 179.509 28.7413C179.157 29.0865 178.999 29.449 178.999 29.9496C179.017 32.2108 179.017 34.4893 178.999 36.7505C178.999 37.2511 179.175 37.6136 179.509 37.9588C181.319 39.823 184.165 40.3236 186.889 39.2534C189.402 38.2695 190.808 36.1464 190.808 33.3155Z" fill="#EB5D64"/>
<path id="Vector_3" d="M128.847 42.9466C128.741 44.621 128.706 44.6555 127.089 44.6555C125.982 44.6555 124.858 44.621 123.75 44.6727C123.118 44.7073 122.977 44.4656 122.977 43.896C122.995 40.0295 122.995 36.1457 122.995 32.2792C122.995 25.5646 123.012 18.85 122.977 12.1353C122.977 11.4276 123.171 11.2032 123.891 11.2378C125.297 11.2895 126.703 11.2895 128.109 11.2378C128.776 11.2205 128.952 11.4104 128.934 12.049C128.899 15.7257 128.917 19.4023 128.917 23.079C128.917 23.2688 128.934 23.476 128.952 23.8212C130.094 22.7855 131.272 22.026 132.713 21.7498C138.529 20.6106 144.434 24.0111 146.05 29.7591C148.036 36.8016 144.328 43.1538 137.897 44.8799C134.681 45.7084 131.764 45.5531 128.847 42.9466ZM134.083 26.8592C132.238 26.8592 130.674 27.4978 129.356 28.7752C129.005 29.1204 128.829 29.4829 128.829 29.9834C128.847 32.2274 128.847 34.4541 128.829 36.6981C128.829 37.1641 128.97 37.5093 129.286 37.8546C131.623 40.3747 136.175 40.461 138.793 38.0099C140.656 36.2665 141.253 33.2803 140.251 30.7602C139.285 28.3436 136.983 26.8937 134.083 26.8592Z" fill="#EB5D64"/>
<path id="Vector_4" d="M87.6927 23.8198C87.7981 22.1282 87.886 22.0419 89.4851 22.0419C90.6274 22.0419 91.7696 22.0592 92.9118 22.0246C93.4215 22.0074 93.5445 22.18 93.5445 22.6633C93.5269 29.7749 93.5269 36.8865 93.5445 44.0154C93.5445 44.4987 93.4039 44.6714 92.9118 44.6541C91.6466 44.6196 90.3989 44.6541 89.1337 44.6368C87.886 44.6368 87.7806 44.5333 87.7278 43.3422C87.7278 43.2387 87.7103 43.1351 87.6927 42.8934C86.4802 44.0672 85.1622 44.8612 83.5631 45.1374C77.4829 46.2076 71.2796 41.9441 70.1901 35.9372C69.206 30.4826 71.2796 25.5977 75.7959 23.0603C78.8535 21.3342 82.087 20.8509 85.4609 22.2318C86.2693 22.577 86.9546 23.1294 87.6927 23.8198ZM87.7278 33.3825C87.7278 32.3123 87.6751 31.2594 87.7454 30.1892C87.7981 29.4642 87.4994 28.9982 86.9898 28.5494C84.758 26.6334 82.2627 26.4435 79.6268 27.5137C77.0435 28.5666 75.954 30.6552 75.8837 33.3135C75.8134 36.0235 77.2896 38.2847 79.697 39.2513C82.4736 40.3733 85.3907 39.8555 87.2534 37.9395C87.6048 37.577 87.763 37.2145 87.7454 36.7139C87.7103 35.6265 87.7278 34.5045 87.7278 33.3825Z" fill="#EB5D64"/>
<path id="Vector_5" d="M154.646 23.7012C157.088 21.5781 159.865 21.0775 162.834 21.6299C167.263 22.4412 169.864 25.4446 169.987 30.0188C170.11 34.7139 170.039 39.4262 170.075 44.1385C170.075 44.6218 169.916 44.7944 169.424 44.7772C167.931 44.7599 166.437 44.7427 164.943 44.7772C164.258 44.7944 164.117 44.5528 164.117 43.9314C164.135 40.1684 164.135 36.4055 164.135 32.6598C164.135 32.0039 164.117 31.3307 164.082 30.6748C163.906 27.9475 162.307 26.5666 159.531 26.7392C158.687 26.791 157.861 26.9981 157.088 27.3433C155.63 27.9993 154.821 28.8796 154.874 30.6748C155.032 35.0591 154.909 39.4607 154.944 43.8451C154.944 44.501 154.769 44.6736 154.118 44.6563C152.66 44.6046 151.201 44.6218 149.725 44.6563C149.18 44.6736 148.969 44.5355 148.969 43.9486C148.987 36.8888 148.987 29.829 148.969 22.7691C148.969 22.2168 149.092 22.0096 149.69 22.0441C150.674 22.0959 151.676 22.0614 152.677 22.0614C154.347 22.0614 154.347 22.0614 154.646 23.7012Z" fill="#EB5D64"/>
<path id="Vector_6" d="M112.556 23.7706C114.014 22.4933 115.543 21.6475 117.406 21.5094C118.302 21.4403 119.216 21.4749 120.112 21.6647C120.463 21.7338 120.586 21.8891 120.586 22.2343C120.569 23.667 120.569 25.0997 120.586 26.5324C120.604 27.1883 120.253 27.0157 119.848 26.9467C117.546 26.5324 115.367 26.7223 113.434 28.1722C112.889 28.5865 112.626 29.0353 112.626 29.743C112.661 34.4553 112.626 39.1503 112.661 43.8627C112.661 44.5013 112.538 44.7775 111.8 44.743C110.341 44.6912 108.883 44.7085 107.407 44.7257C106.915 44.7257 106.669 44.6567 106.669 44.0698C106.686 36.9236 106.686 29.7775 106.669 22.6314C106.669 22.1308 106.827 21.9927 107.319 22.0099C108.496 22.0445 109.656 22.0272 110.833 22.0272C112.415 22.0617 112.45 22.0963 112.556 23.7706Z" fill="#EB5D64"/>
<path id="Vector_7" d="M97.2136 33.3143C97.2136 29.8103 97.2312 26.3235 97.196 22.8195C97.196 22.2153 97.3718 22.0427 97.9868 22.06C99.4805 22.0945 100.974 22.0945 102.45 22.06C102.96 22.0427 103.171 22.1808 103.153 22.7332C103.136 29.8103 103.136 36.9046 103.153 43.9817C103.153 44.5168 102.978 44.6722 102.45 44.6549C100.957 44.6204 99.4629 44.6031 97.9868 44.6549C97.2663 44.6894 97.196 44.396 97.196 43.8091C97.2136 40.3224 97.2136 36.8183 97.2136 33.3143Z" fill="#EB5D64"/>
<path id="Vector_8" d="M100.132 18.9724C97.9358 18.9724 96.1609 17.2291 96.1609 15.0887C96.1609 12.9483 97.9182 11.2049 100.115 11.1876C102.364 11.1704 104.157 12.931 104.121 15.1059C104.104 17.2981 102.347 18.9724 100.132 18.9724Z" fill="#EB5E65"/>
</g>
<defs>
<clipPath id="clip0_120_303">
<rect width="195.797" height="60" fill="white" transform="translate(0.89917)"/>
</clipPath>
</defs>
</svg>
