<svg width="202" height="60" viewBox="0 0 202 60" fill="none" xmlns="http://www.w3.org/2000/svg">
<g id="Amazon" clip-path="url(#clip0_120_283)">
<path id="path8" d="M125.237 46.8515C113.517 55.3454 96.5304 59.8772 81.905 59.8772C61.3979 59.8772 42.9361 52.4191 28.9691 40.015C27.8718 39.0396 28.855 37.7102 30.1718 38.4699C45.2449 47.0932 63.8823 52.281 83.1341 52.281C96.1178 52.281 110.401 49.6396 123.534 44.1583C125.518 43.3297 127.177 45.4359 125.237 46.8515Z" fill="#FF9900"/>
<path id="path10" d="M130.108 41.3687C128.616 39.4869 120.206 40.4796 116.431 40.9198C115.281 41.0579 115.105 40.0739 116.141 39.366C122.839 34.7307 133.83 36.0686 135.112 37.6224C136.394 39.1848 134.778 50.0179 128.484 55.1885C127.518 55.9826 126.597 55.5597 127.027 54.5065C128.44 51.0365 131.609 43.2591 130.108 41.3687Z" fill="#FF9900"/>
<path id="path12" d="M116.695 6.64422V2.13832C116.695 1.4564 117.222 0.998901 117.854 0.998901H138.37C139.028 0.998901 139.555 1.46503 139.555 2.13832V5.99682C139.546 6.64422 138.993 7.49015 138.01 8.82811L127.379 23.7528C131.329 23.6579 135.499 24.2362 139.081 26.2216C139.888 26.6704 140.108 27.3264 140.169 27.9739V32.7819C140.169 33.4379 139.432 34.2061 138.659 33.8091C132.347 30.5548 123.964 30.2009 116.985 33.8436C116.274 34.2234 115.527 33.4638 115.527 32.8078V28.2414C115.527 27.5077 115.536 26.2561 116.282 25.1426L128.599 7.77501H117.88C117.222 7.77501 116.695 7.31752 116.695 6.64422Z" fill="#221F1F"/>
<path id="path14" d="M41.8566 34.7588H35.6149C35.018 34.7156 34.5439 34.2754 34.5 33.7143V2.21623C34.5 1.5861 35.0355 1.08544 35.7027 1.08544H41.523C42.1287 1.11132 42.6116 1.56883 42.6555 2.13854V6.256H42.7696C44.2883 2.27665 47.1414 0.420776 50.9865 0.420776C54.8931 0.420776 57.3335 2.27665 59.0893 6.256C60.5992 2.27665 64.0317 0.420776 67.71 0.420776C70.3261 0.420776 73.188 1.48251 74.935 3.86494C76.9102 6.51496 76.5064 10.3648 76.5064 13.7399L76.4976 33.6194C76.4976 34.2495 75.9621 34.7588 75.2949 34.7588H69.062C68.4387 34.7156 67.9383 34.2236 67.9383 33.6194V16.9251C67.9383 15.5958 68.0612 12.2811 67.7627 11.0209C67.2974 8.90602 65.9016 8.31041 64.0932 8.31041C62.5833 8.31041 61.0031 9.30309 60.3622 10.8914C59.7214 12.4797 59.7828 15.1383 59.7828 16.9251V33.6194C59.7828 34.2495 59.2473 34.7588 58.5801 34.7588H52.3472C51.7151 34.7156 51.2235 34.2236 51.2235 33.6194L51.2148 16.9251C51.2148 13.4119 51.8029 8.24135 47.3697 8.24135C42.8837 8.24135 43.0593 13.2824 43.0593 16.9251V33.6194C43.0593 34.2495 42.5238 34.7588 41.8566 34.7588Z" fill="#221F1F"/>
<path id="path16" d="M157.218 0.420776C166.479 0.420776 171.492 8.24135 171.492 18.1854C171.492 27.7928 165.953 35.4148 157.218 35.4148C148.123 35.4148 143.172 27.5943 143.172 17.8488C143.172 8.04282 148.185 0.420776 157.218 0.420776ZM157.271 6.85161C152.671 6.85161 152.381 13.0148 152.381 16.8561C152.381 20.7059 152.319 28.9236 157.218 28.9236C162.055 28.9236 162.283 22.2942 162.283 18.2544C162.283 15.5958 162.169 12.4192 161.353 9.89869C160.65 7.70617 159.255 6.85161 157.271 6.85161Z" fill="#221F1F"/>
<path id="path18" d="M183.5 34.7588H177.285C176.662 34.7156 176.161 34.2236 176.161 33.6194L176.152 2.11264C176.205 1.5343 176.723 1.08544 177.355 1.08544H183.14C183.685 1.11132 184.132 1.47388 184.255 1.9659V6.78255H184.369C186.116 2.47519 188.565 0.420776 192.876 0.420776C195.676 0.420776 198.406 1.41346 200.162 4.13253C201.795 6.65307 201.795 10.8914 201.795 13.9385V33.7661C201.725 34.3186 201.207 34.7588 200.592 34.7588H194.333C193.763 34.7156 193.288 34.3013 193.227 33.7661V16.6575C193.227 13.2134 193.631 8.1723 189.32 8.1723C187.802 8.1723 186.406 9.17361 185.712 10.6928C184.835 12.6178 184.72 14.5341 184.72 16.6575V33.6194C184.712 34.2495 184.167 34.7588 183.5 34.7588Z" fill="#221F1F"/>
<path id="use28" d="M100.341 19.7146V18.3853C95.8284 18.3853 91.0616 19.3348 91.0616 24.5658C91.0616 27.2158 92.4574 29.0112 94.854 29.0112C96.6097 29.0112 98.1811 27.9495 99.1731 26.2231C100.402 24.0996 100.341 22.1057 100.341 19.7146ZM106.635 34.6738C106.222 35.0364 105.626 35.0623 105.16 34.8206C103.088 33.1287 102.72 32.3432 101.579 30.729C98.1548 34.1645 95.7319 35.1917 91.2898 35.1917C86.0401 35.1917 81.9492 32.0065 81.9492 25.6275C81.9492 20.6469 84.697 17.2545 88.6035 15.5971C91.9921 14.1297 96.7239 13.8707 100.341 13.465V12.6709C100.341 11.2121 100.455 9.48569 99.5857 8.22543C98.822 7.09464 97.3647 6.62851 96.083 6.62851C93.704 6.62851 91.5795 7.82836 91.0616 10.3144C90.9562 10.8668 90.5436 11.4106 89.9818 11.4365L83.9244 10.7978C83.4153 10.6855 82.8534 10.2798 82.9939 9.5116C84.3897 2.29526 91.0177 0.119995 96.9521 0.119995C99.9896 0.119995 103.958 0.914138 106.354 3.17572C109.392 5.96385 109.102 9.68423 109.102 13.7326V23.2969C109.102 26.1713 110.313 27.4316 111.455 28.9854C111.858 29.5378 111.946 30.2025 111.437 30.6168C110.164 31.6613 107.899 33.6035 106.653 34.6911L106.635 34.6738Z" fill="#221F1F"/>
<path id="path30" d="M18.5165 19.7146V18.3853C14.0042 18.3853 9.23735 19.3348 9.23735 24.5658C9.23735 27.2158 10.6332 29.0112 13.0298 29.0112C14.7855 29.0112 16.3569 27.9495 17.3489 26.2231C18.5779 24.0996 18.5165 22.1057 18.5165 19.7146ZM24.8109 34.6738C24.3983 35.0364 23.8013 35.0623 23.336 34.8206C21.2642 33.1287 20.8955 32.3432 19.7543 30.729C16.3306 34.1645 13.9077 35.1917 9.46559 35.1917C4.21589 35.1917 0.125 32.0065 0.125 25.6275C0.125 20.6469 2.87275 17.2545 6.7793 15.5971C10.1679 14.1297 14.8996 13.8707 18.5165 13.465V12.6709C18.5165 11.2121 18.6306 9.48569 17.7615 8.22543C16.9978 7.09464 15.5405 6.62851 14.2588 6.62851C11.8798 6.62851 9.75529 7.82836 9.23735 10.3144C9.132 10.8668 8.7194 11.4106 8.15756 11.4365L2.10022 10.7978C1.59105 10.6855 1.02921 10.2798 1.16967 9.5116C2.56549 2.29526 9.19345 0.119995 15.1279 0.119995C18.1653 0.119995 22.1333 0.914138 24.5299 3.17572C27.5674 5.96385 27.2777 9.68423 27.2777 13.7326V23.2969C27.2777 26.1713 28.4892 27.4316 29.6304 28.9854C30.0342 29.5378 30.122 30.2025 29.6128 30.6168C28.3399 31.6613 26.075 33.6035 24.8284 34.6911L24.8109 34.6738Z" fill="#221F1F"/>
</g>
<defs>
<clipPath id="clip0_120_283">
<rect width="201.916" height="59.9241" fill="white" transform="translate(0 0.0379639)"/>
</clipPath>
</defs>
</svg>
