<svg width="180" height="60" viewBox="0 0 180 60" fill="none" xmlns="http://www.w3.org/2000/svg">
<g id="Frame" clip-path="url(#clip0_120_350)">
<path id="Vector" d="M15.6321 14.6966C17.7506 14.6133 19.7334 15.1965 21.5807 16.0962C24.394 17.4625 27.0208 17.3959 29.8341 16.0796C32.2406 14.9632 34.7997 14.2967 37.5282 14.5133C41.7481 14.8466 45.3071 16.4295 48.0187 19.6952C48.4932 20.2617 48.5101 20.545 47.8492 21.0115C44.8664 23.111 42.8497 25.8769 42.2226 29.4759C41.1719 35.4742 43.9852 40.956 49.51 43.7052C50.1032 44.0051 50.154 44.2717 49.9507 44.8216C48.3407 49.2537 45.9002 53.2193 42.7311 56.7349C39.7144 60.1007 36.5114 60.8005 32.3253 58.9843C29.4782 57.7347 26.6141 57.1515 23.5296 57.9346C22.3772 58.2345 21.3095 58.7177 20.2079 59.1509C16.31 60.7172 13.6832 60.284 10.7852 57.2681C5.70094 51.9863 2.49788 45.7213 1.05735 38.6066C0.142184 34.1079 0.023552 29.6258 1.59966 25.2437C3.56556 19.7952 7.32789 16.1962 13.1917 14.9299C13.6662 14.8299 14.1408 14.7633 14.6153 14.7299C14.9542 14.6633 15.2932 14.6966 15.6321 14.6966Z" fill="black"/>
<path id="Vector_2" d="M97.2196 46.8719C97.2196 49.0213 97.2196 51.1874 97.2196 53.3368C97.2196 55.2529 97.2027 57.1691 97.2366 59.0686C97.2366 59.5684 97.1179 59.7517 96.5756 59.735C95.6435 59.7017 94.7114 59.685 93.7793 59.735C93.0336 59.785 92.7794 59.6017 92.7963 58.802C92.8302 52.4371 92.7963 46.0555 92.8302 39.6739C92.8472 35.3251 92.7455 30.9763 92.6269 26.6276C92.6099 25.9611 92.7794 25.7445 93.4573 25.7945C94.1352 25.8444 94.8131 25.8778 95.491 25.7945C96.44 25.6612 96.7112 26.061 96.6773 26.9275C96.6603 27.8605 96.7451 28.7936 96.7959 29.7434C97.1857 29.7267 97.2366 29.4434 97.3721 29.2602C101.44 23.8283 109.727 23.9283 113.642 29.4768C115.319 31.8594 115.963 34.5587 115.963 37.4246C115.963 40.8903 115.235 44.1394 112.879 46.8719C110.083 50.1044 105.287 51.304 101.253 49.7878C99.6431 49.188 98.3551 48.1882 97.2196 46.8719ZM97.2196 38.191C97.2705 39.5406 97.084 40.9069 97.5247 42.2232C98.389 44.8725 100.745 46.7553 103.473 46.9386C106.642 47.1552 109.168 45.7722 110.439 42.973C111.811 39.9739 111.913 36.8414 110.862 33.7422C109.761 30.4432 107.252 28.7103 103.982 28.777C101.033 28.8436 98.5076 30.9763 97.5416 34.1421C97.1179 35.4918 97.2874 36.8414 97.2196 38.191Z" fill="#020202"/>
<path id="Vector_3" d="M124.551 29.8076C124.89 29.741 124.941 29.491 125.06 29.3244C129.263 23.6427 137.872 23.9426 141.651 29.9076C143.651 33.0734 143.99 36.5557 143.498 40.1547C143.058 43.3705 141.821 46.2197 139.126 48.2192C135.821 50.6685 132.194 51.1017 128.364 49.5188C127.009 48.969 125.958 48.0026 125.093 46.7529C124.873 47.0861 124.958 47.4027 124.958 47.686C124.958 51.4183 124.941 55.1672 124.975 58.8995C124.975 59.5494 124.822 59.766 124.144 59.7326C123.128 59.666 122.111 59.6993 121.094 59.716C120.704 59.716 120.518 59.616 120.552 59.1994C120.569 58.9995 120.552 58.8162 120.552 58.6163C120.552 51.185 120.569 43.7704 120.552 36.3391C120.535 33.1067 120.45 29.8576 120.365 26.6252C120.348 25.9753 120.518 25.7421 121.196 25.7921C121.958 25.842 122.721 25.8587 123.483 25.7921C124.195 25.7254 124.399 26.0087 124.399 26.6752C124.399 27.7249 124.5 28.7579 124.551 29.8076ZM139.262 37.7721C139.278 35.7726 138.906 33.8565 137.855 32.1236C135.753 28.6079 131.245 27.6915 128.008 30.1242C126.076 31.5738 125.127 33.5732 125.009 35.9226C124.924 37.3555 124.975 38.8051 124.992 40.238C124.992 43.2705 127.042 45.9365 129.957 46.7362C133.076 47.586 136.228 46.3697 137.838 43.6704C138.906 41.8543 139.278 39.8548 139.262 37.7721Z" fill="#020202"/>
<path id="Vector_4" d="M75.083 16.3952C75.7609 16.3952 76.4388 16.4285 77.1167 16.3785C77.6082 16.3452 77.7946 16.5452 77.9471 16.9784C81.6586 27.7087 85.387 38.4391 89.1324 49.1694C89.3697 49.8193 89.1493 49.9192 88.5562 49.8859C87.5054 49.8526 86.4717 49.8359 85.4209 49.8859C84.7769 49.9192 84.5566 49.6526 84.3702 49.1028C83.3703 46.1036 82.3026 43.1378 81.3027 40.1386C81.0824 39.4888 80.7773 39.3055 80.0994 39.3055C76.693 39.3388 73.2696 39.3388 69.8632 39.3055C69.1683 39.3055 68.8294 39.4888 68.6091 40.1719C67.6431 43.1711 66.5923 46.1536 65.6094 49.1528C65.4399 49.686 65.2026 49.9026 64.6095 49.8692C63.6265 49.8192 62.6266 49.8192 61.6437 49.8692C60.9149 49.9026 60.8641 49.686 61.0844 49.0695C62.4233 45.2872 63.7113 41.4882 65.0332 37.6893C67.3888 30.8579 69.7784 24.0264 72.1172 17.195C72.3375 16.5618 72.6087 16.2786 73.3035 16.3619C73.8967 16.4452 74.4898 16.3952 75.083 16.3952ZM74.9982 20.2441C74.8796 20.4774 74.7949 20.594 74.761 20.7107C73.5069 25.676 71.7443 30.4913 70.0665 35.3233C69.8801 35.8731 70.0326 35.9731 70.558 35.9731C73.456 35.9564 76.354 35.9398 79.269 35.9731C79.9638 35.9731 80.0655 35.8231 79.8452 35.19C78.9131 32.6074 78.0488 30.0081 77.1506 27.4255C76.3201 25.1095 75.6592 22.7268 74.9982 20.2441Z" fill="#020202"/>
<path id="Vector_5" d="M170.294 38.6407C167.667 38.6407 165.04 38.6574 162.431 38.6241C161.871 38.6241 161.719 38.7907 161.736 39.3406C161.871 43.6394 164.888 46.7052 169.243 46.9384C171.667 47.0717 174.039 46.8551 176.31 45.972C176.751 45.8054 176.954 45.8387 177.039 46.3553C177.141 46.9551 177.293 47.5549 177.48 48.1214C177.683 48.7213 177.514 49.0045 176.904 49.2045C173.734 50.2875 170.481 50.6541 167.159 50.2042C164.718 49.871 162.566 48.9212 160.804 47.1717C158.905 45.2889 157.922 42.9562 157.617 40.3569C157.228 37.0912 157.617 33.942 159.21 31.0095C161.719 26.3941 167.006 24.2114 172.091 25.7277C175.921 26.8607 177.768 29.6932 178.666 33.2922C179.022 34.7085 179.056 36.1414 179.022 37.591C179.005 38.3575 178.819 38.7074 177.904 38.6741C175.361 38.5741 172.836 38.6241 170.294 38.6407ZM168.159 35.5083C169.769 35.5083 171.379 35.5083 172.972 35.5083C174.887 35.5083 174.921 35.5083 174.565 33.6421C174.124 31.3594 173.073 29.4766 170.667 28.7602C168.328 28.0604 166.142 28.3936 164.312 30.0931C162.939 31.3761 162.244 33.0256 161.854 34.8251C161.719 35.4416 161.956 35.5249 162.481 35.5249C164.396 35.4916 166.278 35.5083 168.159 35.5083Z" fill="#020202"/>
<path id="Vector_6" d="M152.771 32.207C152.771 37.8388 152.754 43.4539 152.788 49.0857C152.788 49.7355 152.618 49.9521 151.94 49.9188C150.991 49.8688 150.025 49.8688 149.059 49.9188C148.449 49.9521 148.28 49.7188 148.313 49.1523C148.364 48.4692 148.33 47.7694 148.33 47.0696C148.33 36.5725 148.347 26.0587 148.313 15.5617C148.313 14.7952 148.517 14.5619 149.296 14.6119C150.228 14.6786 151.161 14.6786 152.093 14.6119C152.771 14.5619 152.788 14.9118 152.788 15.4117C152.771 20.5103 152.788 25.6089 152.788 30.7075C152.771 31.2073 152.771 31.7072 152.771 32.207Z" fill="black"/>
<path id="Vector_7" d="M37.5117 1.55049C37.3083 7.08228 33.2748 12.1975 28.055 13.5472C27.3432 13.7304 26.6145 13.8137 25.8857 13.8471C25.3773 13.8637 25.1909 13.6804 25.157 13.1973C25.0892 11.9976 25.2417 10.8146 25.6146 9.6649C27.2585 4.64963 30.6988 1.46718 35.9017 0.184199C37.5625 -0.199028 37.5795 -0.13238 37.5117 1.55049Z" fill="#020202"/>
</g>
<defs>
<clipPath id="clip0_120_350">
<rect width="178.626" height="60" fill="white" transform="translate(0.395264)"/>
</clipPath>
</defs>
</svg>
