<svg width="195" height="60" viewBox="0 0 195 60" fill="none" xmlns="http://www.w3.org/2000/svg">
<g id="Frame" clip-path="url(#clip0_120_339)">
<g id="Group">
<path id="Vector" d="M131.514 15.0437C130.833 14.2377 130.395 13.2184 129.909 12.294C129.593 11.7014 129.276 11.654 128.668 11.9621C127.282 12.6732 125.823 13.2896 124.46 14.0244C123.536 14.5222 123.098 14.3562 122.636 13.4555C121.907 12.0095 121.007 10.6584 120.228 9.23614C119.961 8.73835 119.717 8.69095 119.231 8.92799C117.796 9.63911 116.288 10.2317 114.926 11.0377C113.904 11.6303 113.491 11.2984 113.029 10.4451C112.299 9.09392 111.448 7.79019 110.718 6.43905C110.402 5.87015 110.159 5.75163 109.55 6.05979C108.018 6.84202 106.437 7.55315 104.905 8.33538C104.321 8.64354 104.029 8.57243 103.713 8.00353C102.886 6.51016 101.937 5.08792 101.159 3.59455C100.77 2.85973 100.429 2.88343 99.7726 3.21529C98.3375 3.95012 96.8538 4.56642 95.4431 5.32496C94.6891 5.72793 94.3485 5.5857 93.9837 4.85087C93.2054 3.38122 92.3054 1.98267 91.4784 0.560422C91.2352 0.157452 91.0406 -0.103294 90.4812 0.181156C88.8272 1.0108 87.1489 1.79304 85.495 2.57528C85.0571 2.78861 84.8869 3.12047 84.7653 3.57085C80.5817 17.2481 76.3495 30.9254 72.1173 44.6027C71.874 45.385 72.1416 45.5509 72.774 45.7405C77.4683 47.1628 82.1627 48.585 86.8327 50.031C87.4894 50.2443 87.757 50.1258 88.0245 49.4384C89.2893 46.3331 92.5 44.2709 95.7593 44.342C100.94 44.4368 104.832 48.8932 104.078 54.1081C103.908 55.2696 104.418 55.4118 105.197 55.6489C109.623 57 114.026 58.3511 118.453 59.726C120.034 60.2238 120.009 60.2238 120.472 58.683C124.339 45.8828 128.182 33.0825 132.147 20.3297C132.706 18.3385 132.901 16.703 131.514 15.0437ZM107.507 39.8382C107.507 41.0945 106.778 41.9242 105.707 41.9242C104.807 41.9242 104.029 41.0471 104.029 39.8382C104.005 37.5626 104.029 35.2633 104.029 32.9877C104.029 30.1195 104.053 27.2276 104.029 24.3594C104.029 22.5105 102.813 21.2541 100.916 21.0882C97.4862 20.7801 97.4862 20.7801 97.4862 24.0512C97.4862 29.2899 97.4862 34.5285 97.4862 39.7671C97.4862 40.4782 97.4133 41.0945 96.8052 41.5686C95.9539 42.2323 94.7134 41.9479 94.2513 40.976C94.008 40.4545 94.0323 39.9093 94.0323 39.3641C94.0323 33.604 94.008 27.8676 94.0567 22.1075C94.0567 21.3016 93.8864 21.0171 93.0108 21.0645C91.5271 21.1356 90.019 21.1356 88.511 21.0645C87.6354 21.0171 87.4651 21.3253 87.4651 22.1075C87.4894 27.8676 87.4894 33.6277 87.4894 39.3641C87.4894 39.6012 87.4894 39.8382 87.4894 40.0752C87.4408 41.1182 86.7597 41.9005 85.8598 41.9479C84.8869 41.9953 84.1085 41.2367 84.0599 40.0989C84.0112 38.7952 84.0599 37.4915 84.0599 36.1878V29.6928C84.0599 26.3505 84.0356 22.9846 84.0599 19.6423C84.0842 18.1489 84.595 17.5089 86.0301 17.5089C91.1379 17.4852 96.2457 17.2719 101.329 17.6037C104.953 17.8407 107.532 20.6852 107.556 24.2409C107.532 29.4321 107.507 34.647 107.507 39.8382ZM124.923 19.7845C122.734 27.1565 120.544 34.5522 118.355 41.9242C117.918 43.4412 117.553 44.9583 116.993 46.4517C116.02 49.0828 114.075 50.6236 111.18 50.9555C109.94 51.0977 109.137 50.5525 108.991 49.6043C108.821 48.5139 109.38 47.708 110.596 47.5658C112.494 47.3287 113.515 46.2857 113.953 44.5316C114.318 43.0857 114.756 41.6634 115.266 40.2649C115.68 39.1508 115.242 38.1789 114.95 37.1833C113.272 31.4943 111.545 25.8291 109.867 20.1401C109.769 19.8319 109.721 19.5237 109.696 19.2156C109.648 18.2674 110.11 17.6274 111.058 17.4141C112.056 17.177 112.712 17.6985 112.98 18.5993C113.783 21.183 114.537 23.7905 115.315 26.3979C115.947 28.5313 116.604 30.6647 117.237 32.7981C117.31 32.7981 117.382 32.7744 117.455 32.7744C118.866 28.1521 120.253 23.5297 121.663 18.9074C122.028 17.6748 122.855 17.1296 123.852 17.4378C124.85 17.6511 125.287 18.623 124.923 19.7845Z" fill="#D7141B"/>
<path id="Vector_2" d="M210.325 19.7598C209.765 22.0828 209.157 24.4058 208.598 26.7288C207.503 31.1615 206.384 35.5705 205.314 40.0031C205.071 41.0224 204.633 41.8758 203.514 41.8758C202.395 41.8521 201.909 41.0224 201.641 40.0031C200.596 35.6653 199.501 31.3037 198.212 26.9184C197.75 28.7437 197.263 30.5926 196.801 32.4178C196.144 35.0016 195.488 37.5853 194.855 40.1928C194.636 41.1409 194.15 41.8521 193.128 41.8521C192.155 41.8521 191.547 41.2121 191.304 40.2639C189.626 33.4371 187.923 26.634 186.269 19.8072C185.977 18.5746 186.537 17.6027 187.607 17.4605C188.653 17.3183 189.31 17.7923 189.553 18.7879C190.356 21.9406 191.158 25.0932 191.961 28.2696C192.301 29.6444 192.642 31.0193 192.982 32.3704C193.031 32.3704 193.104 32.3467 193.177 32.3467C193.809 29.8341 194.442 27.3451 195.099 24.8325C195.585 22.9362 196.096 21.0398 196.509 19.1198C196.728 18.1005 197.215 17.4368 198.309 17.4131C199.452 17.3894 199.89 18.1716 200.109 19.1435C201.179 23.4576 202.274 27.7481 203.344 32.0623C203.368 32.1808 203.417 32.2993 203.539 32.6549C204.317 29.5733 205.071 26.7051 205.801 23.8369C206.214 22.225 206.579 20.6368 206.993 19.025C207.309 17.8161 208.111 17.2235 209.133 17.4605C210.033 17.6501 210.592 18.622 210.325 19.7598Z" fill="#5F5F5F"/>
<path id="Vector_3" d="M14.9837 24.7149C14.9351 21.0645 12.5514 18.2674 9.09754 17.6511C8.61108 17.5563 8.12461 17.58 7.63815 17.5563C6.64091 17.4851 5.32746 17.9829 4.71938 17.3429C4.11131 16.7266 4.54912 15.4703 4.54912 14.4747C4.5248 12.6732 4.54912 10.848 4.54912 9.04646C4.54912 7.67162 3.86808 6.91309 2.72489 6.91309C1.50874 6.91309 0.973633 7.5531 0.973633 9.07016C0.973633 14.1666 0.973633 19.2392 0.973633 24.3119C0.973633 29.3846 0.973633 34.481 0.973633 39.5537C0.973633 41.0234 1.55739 41.6397 3.06542 41.6634C4.76803 41.6871 6.47065 41.7345 8.17326 41.6634C11.919 41.5212 14.9351 38.5344 14.9837 34.884C15.0567 31.4943 15.0567 28.1046 14.9837 24.7149ZM11.3596 34.7655C11.3109 36.567 9.85155 37.9181 8.003 38.0129C7.12737 38.0603 6.22741 37.9892 5.32746 38.0366C4.64642 38.084 4.54912 37.7759 4.54912 37.1833C4.57345 34.6232 4.54912 32.0632 4.54912 29.5031C4.54912 27.0616 4.59777 24.6201 4.5248 22.1786C4.50048 21.2541 4.79235 20.9934 5.69231 21.0882C6.32471 21.1593 6.98143 21.0882 7.63815 21.1119C9.82723 21.1593 11.3353 22.463 11.3839 24.5964C11.4569 27.9861 11.4326 31.3758 11.3596 34.7655Z" fill="#5F5F5F"/>
<path id="Vector_4" d="M71.2683 38.6298C72.071 40.0995 71.9494 41.0239 70.9278 41.5928C69.8089 42.2092 68.909 41.7825 68.082 40.2891C66.3064 36.9942 64.5065 33.6994 62.7066 30.3808C61.1742 31.5897 60.1283 32.846 60.3959 34.8846C60.6148 36.5202 60.4445 38.1794 60.4445 39.8387C60.4445 40.9765 59.6662 41.8773 58.7176 41.901C57.6474 41.9484 56.8447 41.1188 56.8447 39.8862C56.8447 29.5274 56.8447 19.145 56.8447 8.7863C56.8447 7.6011 57.4771 6.96108 58.5473 6.91367C59.6419 6.88997 60.2986 7.45887 60.4689 8.62037C60.5175 8.97594 60.4932 9.3315 60.4932 9.68706C60.4932 15.0442 60.4932 20.4013 60.4932 25.7585V27.1807C62.4877 24.9525 64.2633 22.9614 66.0388 20.9702C66.8658 20.0458 67.6685 19.1213 68.4955 18.1968C69.4198 17.2013 70.4413 17.0828 71.3656 17.8887C72.1196 18.5287 72.1196 19.548 71.2926 20.5199C69.517 22.5347 67.6928 24.5733 65.8443 26.517C65.2605 27.1333 65.2605 27.5837 65.6253 28.2474C67.5225 31.7082 69.3954 35.169 71.2683 38.6298Z" fill="#5F5F5F"/>
<path id="Vector_5" d="M164.012 40.1704C164.012 41.2134 163.234 41.9482 162.285 41.9008C161.191 41.8534 160.534 41.2134 160.534 40.0756C160.51 35.2636 160.534 30.4754 160.534 25.6634C160.534 22.4634 159.221 21.1597 155.913 21.1597C153.578 21.1597 153.578 21.1597 153.578 23.4353C153.578 28.8635 153.578 34.3155 153.578 39.7437C153.578 41.0711 152.921 41.9245 151.899 41.9008C150.829 41.9008 150.075 41.0237 150.075 39.72C150.075 37.16 150.075 34.5999 150.075 32.0399C150.075 29.4798 150.075 26.9198 150.075 24.3597V23.6486C150.075 18.9552 150.075 14.2617 150.075 9.56832C150.075 9.16535 150.051 8.76238 150.124 8.38312C150.294 7.57717 150.805 7.03198 151.656 6.93716C152.58 6.84234 153.213 7.29272 153.529 8.12237C153.772 8.76238 153.699 9.4498 153.699 10.1135C153.699 12.2706 153.724 14.4514 153.675 16.6085C153.651 17.3196 153.87 17.5803 154.624 17.5329C155.475 17.4855 156.326 17.5092 157.178 17.5329C160.802 17.604 163.866 20.3774 163.939 23.933C164.061 29.3613 164.012 34.7658 164.012 40.1704Z" fill="#5F5F5F"/>
<path id="Vector_6" d="M182.666 24.1698C182.496 20.0927 179.48 17.3193 175.418 17.3667C171.696 17.4378 168.656 20.5905 168.656 24.4542C168.632 27.8676 168.632 31.3047 168.656 34.7181C168.656 35.9982 168.923 37.2308 169.58 38.3212C171.259 41.1183 174.299 42.422 177.266 41.6871C180.355 40.9286 182.544 38.3212 182.666 35.0974C182.739 33.2485 182.69 31.3995 182.69 29.5506C182.666 27.7728 182.739 25.9713 182.666 24.1698ZM179.091 29.6217C179.091 31.1862 179.091 32.7744 179.091 34.3389C179.091 36.7093 177.753 38.2026 175.685 38.2263C173.739 38.2263 172.329 36.6856 172.304 34.41C172.28 31.5655 172.28 28.7447 172.304 25.9002C172.304 25.1654 172.256 24.4068 172.426 23.672C172.815 21.9416 174.202 20.8275 175.831 20.946C177.534 21.0645 178.969 22.3683 179.042 24.075C179.139 25.9239 179.066 27.7728 179.091 29.6217Z" fill="#5F5F5F"/>
<path id="Vector_7" d="M33.5667 29.5506C33.5667 27.7728 33.591 26.0187 33.5667 24.2409C33.5424 20.5194 30.6966 17.5326 27.0481 17.3193C23.2294 17.106 19.9701 19.8082 19.6539 23.6246C19.3377 27.5832 19.362 31.5655 19.6296 35.5241C19.8728 39.0323 23.1321 42.019 26.4644 41.9005C30.429 41.7583 33.4937 38.8427 33.5667 35.0974C33.591 33.2485 33.5667 31.3996 33.5667 29.5506ZM29.9426 34.5996C29.8939 36.6856 28.3859 38.2501 26.4887 38.2264C24.5672 38.2027 23.1808 36.7093 23.1564 34.5996C23.1321 31.2099 23.1321 27.8439 23.1564 24.4542C23.1808 22.392 24.6158 20.9223 26.5373 20.9223C28.4589 20.9223 29.8939 22.392 29.9426 24.4542C29.9669 26.1846 29.9426 27.915 29.9426 29.6455C29.9426 31.3047 29.9669 32.964 29.9426 34.5996Z" fill="#5F5F5F"/>
<path id="Vector_8" d="M52.199 30.3583C52.199 27.6798 52.272 25.8309 52.1747 23.9819C51.9558 20.0233 48.8667 17.2737 44.8778 17.3685C41.2779 17.4633 38.2376 20.5685 38.2132 24.3138C38.1646 27.8931 38.1646 31.4724 38.2132 35.0518C38.2619 38.56 41.059 41.6415 44.6589 41.8549C48.0884 42.0682 51.1774 40.1007 52.0287 36.3555C52.5152 34.1036 52.1017 31.8043 52.199 30.3583ZM48.5749 34.554C48.5749 36.7111 47.1155 38.2281 45.1696 38.2281C43.1995 38.2281 41.7887 36.6874 41.7644 34.554C41.7644 32.8947 41.7644 31.2591 41.7644 29.5998C41.7644 27.9168 41.7644 26.2101 41.7644 24.5271C41.7887 22.4175 43.1751 20.9241 45.0967 20.9241C47.1155 20.9241 48.5505 22.3937 48.5749 24.5271C48.5992 27.8694 48.5992 31.2117 48.5749 34.554Z" fill="#5F5F5F"/>
<path id="Vector_9" d="M142.242 40.7166C141.075 41.5226 139.762 41.807 138.229 41.7833C136.064 41.8544 134.483 40.6455 133.243 38.9388C132.44 37.8484 132.562 36.758 133.511 36.1417C134.41 35.5254 135.383 35.7625 136.186 36.8765C136.964 37.9432 138.01 38.4647 139.324 38.204C140.661 37.9432 141.561 37.0899 141.78 35.7625C141.999 34.4587 141.561 33.3683 140.443 32.5624C138.935 31.4483 137.402 30.3579 135.87 29.2675C133.438 27.5371 132.489 25.2141 133.121 22.3696C133.729 19.5962 135.821 17.771 138.789 17.2732C140.929 16.9176 144.188 18.6006 145.015 20.5681C145.38 21.4214 145.38 22.2985 144.48 22.8674C143.556 23.46 142.729 23.223 142.024 22.4407C141.926 22.3222 141.829 22.18 141.732 22.0615C140.516 20.6629 138.594 20.5207 137.354 21.7059C136.089 22.8911 136.186 24.9771 137.645 26.0675C139.105 27.1815 140.637 28.2008 142.17 29.2438C146.523 32.2068 146.572 37.7062 142.242 40.7166Z" fill="#5F5F5F"/>
</g>
</g>
<defs>
<clipPath id="clip0_120_339">
<rect width="209.422" height="59.9241" fill="white" transform="translate(0.973633 0.0379639)"/>
</clipPath>
</defs>
</svg>
