<svg width="183" height="56" viewBox="0 0 183 56" fill="none" xmlns="http://www.w3.org/2000/svg">
<g id="Frame" clip-path="url(#clip0_120_320)">
<g id="Group">
<path id="Vector" d="M166.985 36.6448L182.123 19.8865H166.63L159.376 28.0635L151.839 19.8865H135.782L151.001 36.7162L135.782 53.538H151.355L158.755 45.3055L166.219 53.538H182.34L166.985 36.6448ZM135.774 12.352V0.53479H105.877V53.538H135.774V41.6969H118.541V31.2597H135.774V19.8945H118.541V12.352H135.774Z" fill="#FF5A00"/>
</g>
<path id="Vector_2" d="M93.2607 0.53479V22.2262H93.1237C90.3347 19.0696 86.8445 17.9672 82.7981 17.9672C74.5037 17.9672 68.2568 23.519 66.0643 30.8472C63.5655 22.7655 57.117 17.8165 47.5491 17.8165C39.7787 17.8165 33.6527 21.2428 30.4526 26.8341V19.8865H14.3959V12.352H31.9116V0.53479H0.0883789V53.538H14.3959V31.2597H28.6551C28.2118 32.9728 27.9941 34.7335 28.0022 36.5021C28.0022 47.55 36.5867 55.3225 47.5411 55.3225C56.7543 55.3225 62.8239 51.0635 66.0401 43.3069H53.7799C52.1195 45.6386 50.862 46.3286 47.5491 46.3286C43.7042 46.3286 40.3913 43.0293 40.3913 39.1193H65.363C66.4431 47.899 73.3994 55.4731 82.9431 55.4731C87.0621 55.4731 90.8264 53.4825 93.1317 50.1197H93.2688V53.5538H105.884V0.53479H93.2607ZM40.7863 31.4183C41.5843 28.0476 44.2362 25.8507 47.5491 25.8507C51.1925 25.8507 53.7155 27.9841 54.3764 31.4183H40.7863ZM85.6031 45.4721C80.9522 45.4721 78.0665 41.2131 78.0665 36.7638C78.0665 32.0052 80.5814 27.4369 85.6031 27.4369C90.8183 27.4369 92.8899 32.0131 92.8899 36.7638C92.898 41.2686 90.6974 45.4721 85.6031 45.4721Z" fill="#29007C"/>
</g>
<defs>
<clipPath id="clip0_120_320">
<rect width="182.242" height="54.9304" fill="white" transform="translate(0.0883789 0.53479)"/>
</clipPath>
</defs>
</svg>
