<svg width="188" height="60" viewBox="0 0 188 60" fill="none" xmlns="http://www.w3.org/2000/svg">
<g id="Frame" clip-path="url(#clip0_120_312)">
<g id="Group">
<path id="Vector" d="M35.8224 21.3079C39.3357 21.3079 42.8491 21.3151 46.3625 21.3007C46.6638 21.3007 46.7814 21.3653 46.8255 21.674C47.0607 23.3252 47.1269 24.9764 47.0313 26.642C46.9137 28.6809 46.5609 30.6695 45.9362 32.615C44.3485 37.5471 41.0924 41.1438 36.5941 43.7283C34.0069 45.2144 31.1771 46.0041 28.2003 46.3415C24.7163 46.7363 21.2911 46.5281 17.9248 45.5374C9.40595 43.0247 2.66587 36.0682 1.11499 27.4891C-0.421188 18.989 2.29836 11.8243 8.78119 6.02356C11.9418 3.19499 15.6756 1.34995 19.8799 0.55307C27.8254 -0.954545 34.8962 0.78998 40.9087 6.21022C41.0998 6.38251 41.1365 6.47584 40.9307 6.67686C39.5415 8.01217 38.1671 9.35467 36.7999 10.7043C36.6309 10.8695 36.5353 10.9054 36.3369 10.7259C33.9187 8.57214 31.1256 7.12914 27.8769 6.63378C22.254 5.77947 17.2633 7.12914 13.0884 10.97C10.1924 13.6262 8.47248 16.9215 7.95062 20.7551C7.17151 26.5199 8.83264 31.5453 13.1325 35.6231C15.7638 38.1214 18.9538 39.5716 22.6068 40.0167C25.7306 40.3972 28.7956 40.1172 31.7136 38.9255C34.5434 37.7696 36.9028 36.0036 38.5052 33.4047C39.5195 31.7535 40.0193 29.9228 40.328 28.0347C40.3795 27.7117 40.2692 27.6614 39.9678 27.6686C35.0726 27.6758 30.1701 27.6758 25.2749 27.6901C24.9074 27.6901 24.8118 27.604 24.8118 27.2379C24.8339 25.3856 24.8265 23.5334 24.8118 21.6812C24.8118 21.3797 24.8927 21.3079 25.1941 21.3079C28.7515 21.3079 32.2869 21.3079 35.8224 21.3079Z" fill="#4285F3"/>
<path id="Vector_2" d="M145.457 31.7483C145.457 36.228 145.501 40.7078 145.443 45.1876C145.398 48.2818 144.759 51.2539 143.068 53.9389C141.326 56.7029 138.798 58.4689 135.615 59.3161C132.183 60.2278 128.765 60.2278 125.421 58.9356C121.694 57.4854 119.078 54.8866 117.402 51.3544C117.314 51.1678 117.358 51.0888 117.541 51.017C119.335 50.2919 121.136 49.5668 122.922 48.8274C123.201 48.7125 123.223 48.8848 123.304 49.0427C124.252 50.9668 125.641 52.4672 127.648 53.3861C130.404 54.6425 134.704 54.1184 136.828 51.8641C137.945 50.6796 138.548 49.2797 138.857 47.7218C139.144 46.2644 139.063 44.7927 139.07 43.3282C139.07 43.2636 139.092 43.1774 139.011 43.1343C138.923 43.0913 138.842 43.1272 138.783 43.1918C138.732 43.242 138.688 43.2995 138.636 43.3497C136.983 45.1086 134.91 46.1208 132.514 46.3721C126.545 47.0182 122.003 44.5845 118.651 39.9037C116.711 37.1972 115.924 34.1102 116.093 30.815C116.439 24.1815 121.143 18.6392 127.317 17.0382C130.603 16.1839 133.763 16.4567 136.733 18.1869C137.46 18.6105 138.114 19.1345 138.688 19.7519C138.776 19.8453 138.857 19.9889 139.011 19.9171C139.151 19.8525 139.077 19.7017 139.077 19.594C139.085 18.9981 139.092 18.4023 139.077 17.7992C139.07 17.5767 139.129 17.4905 139.379 17.4905C141.312 17.4977 143.245 17.5049 145.185 17.4905C145.531 17.4905 145.479 17.67 145.479 17.871C145.479 22.4944 145.479 27.1177 145.479 31.7411C145.465 31.7483 145.457 31.7483 145.457 31.7483ZM139.548 31.6549C139.54 29.774 139.151 28.0223 138.173 26.4213C136.814 24.203 134.844 22.7887 132.168 22.5446C129.206 22.2718 126.766 23.3415 124.914 25.5957C123.186 27.6921 122.606 30.1401 122.907 32.7892C123.208 35.3952 124.384 37.5418 126.567 39.1068C130.044 41.6052 134.8 41.0021 137.482 37.7213C138.938 35.9409 139.533 33.8733 139.548 31.6549Z" fill="#4285F3"/>
<path id="Vector_3" d="M82.8876 31.5605C82.8802 23.125 89.5836 16.5992 98.2714 16.5849C106.952 16.5705 113.648 23.082 113.655 31.5461C113.663 39.9816 106.959 46.5218 98.2861 46.529C89.6424 46.5433 82.8949 39.9816 82.8876 31.5605ZM106.93 31.5749C106.937 30.3688 106.731 29.1986 106.305 28.0643C104.122 22.2564 96.6764 20.598 92.2811 24.9414C88.9073 28.2725 88.7236 34.224 91.8915 37.7489C94.7948 40.9795 99.521 41.5969 103.064 39.156C105.724 37.311 106.856 34.6906 106.93 31.5749Z" fill="#FABB06"/>
<path id="Vector_4" d="M65.0922 16.5848C73.7801 16.5848 80.4614 23.0891 80.4687 31.5533C80.4761 39.9888 73.758 46.5289 65.0922 46.5289C56.4264 46.5289 49.7084 39.9816 49.7157 31.5533C49.7231 23.0891 56.4043 16.5848 65.0922 16.5848ZM65.151 40.6349C67.7015 40.5775 69.9212 39.6226 71.5603 37.6268C73.9491 34.7265 74.3607 31.4313 73.0671 28.0068C71.8764 24.848 69.4655 22.9312 66.011 22.5579C62.7769 22.2061 60.1088 23.405 58.2125 25.9895C56.3749 28.4806 56.0368 31.2949 56.8086 34.2239C57.7935 38.0001 61.2187 40.6277 65.151 40.6349Z" fill="#E94335"/>
<path id="Vector_5" d="M173.683 40.6185C177.204 40.6257 179.563 39.2401 181.349 36.8279C181.57 36.5336 181.695 36.5192 181.996 36.7202C183.51 37.7325 185.039 38.7232 186.575 39.6995C186.81 39.8503 186.818 39.9436 186.656 40.1518C183.914 43.7845 180.305 46.0028 175.675 46.4264C170.949 46.8643 166.766 45.5649 163.327 42.2912C160.997 40.0729 159.6 37.3376 159.086 34.2147C158.483 30.5605 158.968 27.0428 160.82 23.7763C163.025 19.8995 166.399 17.5376 170.882 16.7838C176.674 15.8074 181.819 18.1981 184.995 23.2378C185.869 24.6162 186.443 26.1238 187.06 27.6171C187.17 27.8827 186.957 27.8612 186.832 27.9114C184.789 28.7442 182.746 29.5626 180.702 30.3882C176.13 32.2333 171.566 34.0855 166.987 35.9233C166.686 36.0454 166.641 36.1387 166.803 36.4187C167.891 38.3068 169.39 39.6924 171.573 40.2954C172.404 40.5323 173.242 40.6113 173.683 40.6185ZM165.517 30.5749C165.517 30.5318 165.517 30.5749 165.517 30.6251C165.517 31.099 165.517 31.099 165.973 30.9123C167.935 30.1154 169.898 29.3257 171.86 28.5288C174.205 27.5812 176.549 26.6192 178.901 25.6787C179.173 25.571 179.24 25.4705 179.085 25.2193C178.916 24.9393 178.762 24.6593 178.534 24.4152C176.851 22.6276 174.719 22.0676 172.36 22.4984C168.361 23.2306 165.612 26.5115 165.517 30.5749Z" fill="#E94335"/>
<path id="Vector_6" d="M156.02 23.7079C156.02 30.8655 156.02 38.0159 156.027 45.1735C156.027 45.5396 155.939 45.6258 155.564 45.6186C153.646 45.5971 151.72 45.6042 149.801 45.6114C149.53 45.6114 149.427 45.5683 149.427 45.2668C149.434 30.8727 149.434 16.4786 149.427 2.08442C149.427 1.80443 149.493 1.72546 149.787 1.72546C151.735 1.73982 153.682 1.73982 155.623 1.72546C155.968 1.72546 156.02 1.83315 156.02 2.12749C156.02 9.32815 156.02 16.5144 156.02 23.7079Z" fill="#35A854"/>
</g>
</g>
<defs>
<clipPath id="clip0_120_312">
<rect width="186.392" height="59.9241" fill="white" transform="translate(0.696167 0.0379639)"/>
</clipPath>
</defs>
</svg>
