<svg width="284" height="60" viewBox="0 0 284 60" fill="none" xmlns="http://www.w3.org/2000/svg">
<g clip-path="url(#clip0_120_324)">
<path d="M32.1219 59.9635C32.1219 59.049 32.1108 58.1346 32.1108 57.2201C32.1108 48.8468 32.1108 40.4735 32.0997 32.1003C32.0997 31.6375 32.1774 31.4833 32.699 31.4833C41.8874 31.5053 51.0759 31.5053 60.2532 31.4833C60.7637 31.4833 60.8525 31.6375 60.8525 32.1003C60.8414 41.1676 60.8414 50.235 60.8414 59.3024C60.8414 59.5228 60.8525 59.7431 60.8525 59.9635C51.2756 59.9635 41.6988 59.9635 32.1219 59.9635Z" fill="#FBB812"/>
<path d="M0.398026 59.9635C0.386929 59.7652 0.364735 59.5668 0.364735 59.3575C0.364735 50.2901 0.364735 41.2338 0.353638 32.1664C0.353638 31.5935 0.520095 31.4833 1.06386 31.4833C10.1746 31.5053 19.2854 31.4943 28.3851 31.4943C29.0953 31.4943 29.0953 31.4943 29.0953 32.2214C29.0953 41.2338 29.0953 50.2461 29.0953 59.2473C29.0953 59.4897 29.1175 59.7211 29.1286 59.9635C19.5517 59.9635 9.97487 59.9635 0.398026 59.9635Z" fill="#33A0DA"/>
<path d="M29.0829 14.3387C29.0829 18.8668 29.0718 23.384 29.094 27.9122C29.094 28.386 28.9942 28.5292 28.4948 28.5182C19.3063 28.4961 10.129 28.4961 0.940544 28.5182C0.452269 28.5182 0.3302 28.397 0.3302 27.9122C0.341297 18.8228 0.341297 9.72233 0.3302 0.610873C0.3302 0.159156 0.430075 0.0379639 0.907252 0.0379639C10.1068 0.0489814 19.3063 0.0489814 28.517 0.0379639C28.972 0.0379639 29.1051 0.137121 29.094 0.599856C29.0718 5.18313 29.0829 9.7664 29.0829 14.3387Z" fill="#EA5328"/>
<path d="M46.4817 0.0489814C51.0648 0.0489814 55.6479 0.0599988 60.231 0.0379639C60.686 0.0379639 60.8525 0.104069 60.8525 0.621891C60.8303 9.72233 60.8303 18.8228 60.8525 27.9342C60.8525 28.43 60.7193 28.5292 60.2421 28.5292C51.0537 28.5182 41.8763 28.5182 32.6879 28.5292C32.244 28.5292 32.0997 28.441 32.0997 27.9673C32.1108 18.8448 32.1108 9.72233 32.0997 0.599856C32.0997 0.137121 32.2329 0.0379639 32.6768 0.0379639C37.271 0.0599988 41.8763 0.0489814 46.4817 0.0489814Z" fill="#7EBA2A"/>
<path d="M84.8704 19.9788C84.8704 20.1881 84.8704 20.3974 84.8704 20.5957C84.8704 29.4979 84.8593 38.4 84.8815 47.3021C84.8815 47.875 84.7151 47.9962 84.1824 47.9742C82.6288 47.9411 81.0752 47.9522 79.5216 47.9742C79.1221 47.9852 79.0333 47.864 79.0333 47.4784C79.0444 35.8329 79.0444 24.1764 79.0333 12.5309C79.0333 12.1233 79.1221 12.0021 79.5438 12.0131C82.2071 12.0352 84.8704 12.0352 87.5337 12.0131C87.9998 12.0131 88.1996 12.1453 88.366 12.575C91.673 21.0805 95.0132 29.586 98.3313 38.0915C98.3424 38.1246 98.3535 38.1686 98.3646 38.1907C98.4534 38.3229 98.4312 38.5873 98.6087 38.5873C98.8417 38.5983 98.8307 38.3339 98.8861 38.1686C102.426 29.608 105.966 21.0585 109.495 12.4869C109.639 12.1343 109.795 11.9911 110.205 11.9911C112.735 12.0131 115.266 12.0131 117.807 11.9911C118.195 11.9911 118.295 12.0902 118.295 12.4759C118.284 24.1434 118.284 35.8109 118.295 47.4784C118.295 47.8861 118.151 47.9522 117.785 47.9522C116.031 47.9301 114.278 47.9191 112.513 47.9522C112.025 47.9632 111.959 47.7979 111.959 47.3682C111.97 38.389 111.97 29.4207 111.97 20.4415C111.97 20.2542 111.97 20.0559 111.97 19.8686C111.936 19.8576 111.903 19.8576 111.87 19.8466C111.781 20.0339 111.692 20.2322 111.626 20.4195C108.041 29.3987 104.457 38.3669 100.895 47.3462C100.706 47.831 100.473 47.9632 99.9737 47.9522C98.9638 47.9081 97.9429 47.9191 96.9219 47.9522C96.5446 47.9632 96.3671 47.842 96.2339 47.5004C93.848 41.6171 91.4399 35.7007 89.0319 29.7843C87.7557 26.6664 86.4906 23.5484 85.2144 20.4305C85.1479 20.2652 85.0702 20.111 84.9925 19.9567C84.9481 19.9677 84.9148 19.9788 84.8704 19.9788Z" fill="#757575"/>
<path d="M269.246 15.0109C268.491 14.7465 267.825 14.4931 267.104 14.405C264.385 14.0855 262.609 15.5288 262.487 18.2391C262.432 19.3739 262.476 20.5087 262.443 21.6435C262.432 22.0181 262.587 22.0952 262.931 22.0952C265.661 22.0842 268.402 22.0842 271.132 22.0952C271.509 22.0952 271.587 21.963 271.587 21.6214C271.576 19.9909 271.598 18.3603 271.576 16.7297C271.576 16.3661 271.698 16.2229 272.031 16.1237C273.784 15.6169 275.538 15.0991 277.269 14.5592C277.702 14.427 277.746 14.5592 277.746 14.9448C277.735 17.1373 277.746 19.3408 277.735 21.5443C277.735 21.963 277.835 22.1172 278.29 22.1062C280.01 22.0842 281.73 22.1062 283.45 22.0842C283.861 22.0842 283.994 22.1943 283.983 22.613C283.96 23.9461 283.96 25.2903 283.983 26.6234C283.994 27.009 283.872 27.1081 283.483 27.1081C281.741 27.0861 280.01 27.1081 278.268 27.0861C277.857 27.0861 277.735 27.1743 277.735 27.5929C277.757 31.416 277.746 35.2501 277.746 39.0731C277.746 39.6791 277.779 40.274 277.901 40.88C278.245 42.5547 279.2 43.37 280.92 43.4691C281.819 43.5242 282.629 43.2488 283.428 42.9072C283.561 42.8521 283.661 42.7199 283.872 42.753C283.872 44.2954 283.872 45.8489 283.872 47.4024C283.872 47.7659 283.583 47.799 283.35 47.8651C281.874 48.3388 280.365 48.5041 278.822 48.4711C277.79 48.449 276.758 48.3168 275.782 47.9642C273.274 47.0718 272.12 45.1327 271.698 42.6648C271.332 40.5605 271.532 38.4231 271.532 36.3077C271.532 33.4101 271.554 30.5236 271.598 27.626C271.598 27.2514 271.465 27.1743 271.121 27.1743C268.424 27.1853 265.728 27.1963 263.031 27.1743C262.576 27.1743 262.454 27.2844 262.454 27.7472C262.465 34.2695 262.454 40.7919 262.476 47.3142C262.476 47.8871 262.321 48.0083 261.777 47.9973C260.113 47.9642 258.448 47.9642 256.783 47.9973C256.328 48.0083 256.195 47.8981 256.195 47.4244C256.206 40.9241 256.206 34.4238 256.206 27.9124C256.206 27.0751 256.306 27.1963 255.463 27.1853C254.386 27.1742 253.321 27.1742 252.245 27.1853C251.934 27.1853 251.834 27.0971 251.834 26.7776C251.845 25.3674 251.845 23.9571 251.834 22.5469C251.834 22.2274 251.945 22.1503 252.256 22.1503C253.421 22.1613 254.586 22.1393 255.751 22.1613C256.118 22.1723 256.217 22.0511 256.217 21.6986C256.217 20.3654 256.173 19.0213 256.262 17.6882C256.562 13.138 260.29 9.52424 264.884 9.39203C266.161 9.35898 267.437 9.32592 268.691 9.59034C269.123 9.67848 269.279 9.86578 269.268 10.3285C269.223 11.871 269.246 13.4134 269.246 15.0109Z" fill="#757575"/>
<path d="M201.609 34.7447C201.631 37.1465 201.276 39.339 200.333 41.4103C198.735 44.9138 196.06 47.1945 192.298 48.142C189.424 48.8691 186.506 48.8581 183.643 48.0648C179.77 46.9851 177.117 44.5392 175.841 40.7713C174.487 36.7499 174.621 32.7175 176.318 28.8173C178.083 24.7408 181.356 22.5373 185.718 21.8322C188.115 21.4466 190.512 21.4796 192.864 22.1076C197.381 23.3196 200 26.3714 201.154 30.7674C201.498 32.1115 201.642 33.4887 201.609 34.7447ZM181.401 35.1854C181.401 35.8464 181.434 36.4965 181.501 37.1575C181.9 40.6831 183.975 43.2612 187.826 43.5366C191.255 43.779 193.907 42.4569 194.928 38.7991C195.561 36.5405 195.55 34.2379 195.061 31.9463C194.729 30.3928 194.107 28.9825 192.809 27.9579C189.235 25.1264 183.753 26.6689 182.056 30.9767C181.545 32.3319 181.39 33.7421 181.401 35.1854Z" fill="#757575"/>
<path d="M251.179 34.6639C251.179 37.1869 250.824 39.3684 249.892 41.4176C248.349 44.8 245.786 47.0696 242.179 48.0612C239.15 48.8985 236.076 48.8875 233.046 48.0281C229.317 46.9594 226.787 44.5576 225.5 40.9659C224.046 36.9115 224.157 32.824 225.866 28.8577C227.62 24.7812 230.882 22.5557 235.232 21.8286C237.64 21.4319 240.059 21.465 242.434 22.104C246.973 23.3269 249.581 26.4008 250.735 30.8188C251.068 32.163 251.201 33.5512 251.179 34.6639ZM244.964 35.1046C244.976 34.0029 244.876 32.9121 244.62 31.8434C244.099 29.695 243.067 27.8992 240.858 27.0949C237.496 25.883 233.246 26.6212 231.559 31.3146C230.86 33.2537 230.86 35.2589 231.093 37.2751C231.515 40.7786 233.645 43.2576 237.363 43.533C240.858 43.7974 243.5 42.4092 244.532 38.7404C244.865 37.5505 244.953 36.3276 244.964 35.1046Z" fill="#757575"/>
<path d="M220.455 28.3297C219.489 27.8118 218.613 27.3271 217.658 26.9635C216.071 26.3686 214.451 26.1482 212.775 26.5448C211.688 26.7982 211.011 27.4923 210.845 28.561C210.667 29.6518 210.944 30.6433 211.932 31.3044C212.92 31.9654 214.029 32.3731 215.117 32.8248C216.726 33.4859 218.313 34.191 219.633 35.3368C222.852 38.1462 222.741 43.3134 219.456 46.1119C217.636 47.6654 215.472 48.3044 213.153 48.4917C210.312 48.712 207.56 48.3044 204.885 47.3128C204.686 47.2357 204.475 47.2026 204.475 46.8941C204.486 45.0101 204.486 43.1372 204.486 41.2422C204.752 41.2532 204.885 41.4184 205.052 41.5176C206.972 42.7185 209.047 43.4897 211.322 43.633C212.176 43.688 213.02 43.644 213.852 43.4016C215.439 42.9499 216.093 41.5176 215.405 40.0302C215.128 39.4353 214.695 38.9726 214.129 38.62C213.064 37.9479 211.91 37.4742 210.756 36.9894C209.424 36.4275 208.148 35.7885 207.027 34.8741C205.496 33.6181 204.752 31.9875 204.597 30.0594C204.197 25.1346 207.893 22.5345 211.233 21.7302C214.285 21.003 217.248 21.4437 220.177 22.3582C220.444 22.4463 220.455 22.5896 220.455 22.8099C220.444 24.6058 220.455 26.4126 220.455 28.3297Z" fill="#757575"/>
<path d="M154.913 41.3537C154.913 41.5079 154.913 41.6842 154.913 41.8605C154.913 43.1385 154.913 44.4276 154.913 45.7056C154.913 46.9946 154.924 47.0167 153.681 47.5014C151.395 48.4049 148.987 48.6032 146.557 48.5261C140.586 48.3277 135.892 44.5267 134.805 38.6985C133.873 33.6745 134.883 29.0361 138.556 25.2241C140.376 23.3291 142.684 22.3155 145.258 21.8748C148.288 21.3569 151.251 21.5112 154.125 22.679C154.624 22.8774 154.857 23.1087 154.846 23.7037C154.791 25.3673 154.824 27.0309 154.824 28.7937C154.369 28.5183 153.992 28.2759 153.603 28.0446C151.406 26.7665 149.076 26.3148 146.579 26.9648C144.226 27.5708 142.528 29.0141 141.641 31.2396C140.62 33.7626 140.575 36.3738 141.519 38.9188C142.54 41.6732 144.692 43.0614 147.567 43.4911C150.119 43.8657 152.272 42.9182 154.336 41.6291C154.491 41.53 154.647 41.4308 154.802 41.3316C154.813 41.3206 154.835 41.3316 154.913 41.3537Z" fill="#757575"/>
<path d="M174.654 28.2311C173.711 27.6252 172.746 27.3938 171.747 27.3167C169.183 27.0963 167.286 28.2862 166.32 30.666C165.721 32.1313 165.588 33.6848 165.588 35.2383C165.577 39.2817 165.577 43.3361 165.599 47.3795C165.599 47.8423 165.51 47.9965 165 47.9855C163.324 47.9524 161.637 47.9634 159.962 47.9745C159.607 47.9745 159.451 47.9194 159.451 47.5117C159.462 39.2156 159.462 30.9194 159.451 22.6342C159.451 22.2376 159.573 22.1495 159.951 22.1495C161.671 22.1715 163.391 22.1715 165.1 22.1495C165.499 22.1495 165.599 22.2707 165.588 22.6453C165.566 23.7911 165.577 24.9479 165.577 26.1048C165.821 26.1378 165.799 25.9285 165.854 25.8183C167.519 22.2927 170.671 21.3122 174.133 21.9291C174.51 21.9952 174.677 22.1495 174.665 22.5792C174.632 24.4411 174.654 26.2921 174.654 28.2311Z" fill="#757575"/>
<path d="M124.173 35.0495C124.173 30.951 124.184 26.8415 124.162 22.743C124.162 22.2472 124.295 22.137 124.773 22.1481C126.437 22.1811 128.102 22.1811 129.755 22.1481C130.21 22.137 130.299 22.2913 130.299 22.71C130.288 30.951 130.288 39.1921 130.299 47.4332C130.299 47.8298 130.232 48.0061 129.766 47.9951C128.068 47.962 126.371 47.962 124.673 47.9951C124.251 48.0061 124.162 47.8849 124.162 47.4773C124.173 43.3347 124.173 39.1921 124.173 35.0495Z" fill="#757575"/>
<path d="M130.967 14.8568C130.945 16.8289 129.292 18.3052 127.128 18.2722C125.075 18.2501 123.488 16.6636 123.51 14.6805C123.532 12.7414 125.197 11.232 127.294 11.2651C129.425 11.3091 130.99 12.8406 130.967 14.8568Z" fill="#757575"/>
</g>
<defs>
<clipPath id="clip0_120_324">
<rect width="283.643" height="59.9241" fill="white" transform="translate(0.3302 0.0379639)"/>
</clipPath>
</defs>
</svg>
