<svg width="181" height="60" viewBox="0 0 181 60" fill="none" xmlns="http://www.w3.org/2000/svg">
<g id="Group">
<path id="Vector" d="M47.4945 55.7982C43.8512 57.8086 39.9499 59.1687 35.7905 59.686C27.7752 60.6913 20.3976 58.9617 13.8548 54.3199C6.91742 49.3973 2.66692 42.7599 1.33105 34.5112C-0.30843 24.3998 2.94017 15.8259 10.4544 8.73018C13.3084 6.03973 16.4962 3.82233 20.1851 2.35884C22.4014 1.48667 24.7695 1.07275 27.1073 0.629271C30.1737 0.0379639 33.2705 -0.109863 36.3825 0.185791C39.0998 0.437096 41.7563 0.895359 44.1852 2.2258C46.5533 3.52667 49.0429 4.62059 51.32 6.03973C54.3257 7.88756 56.876 10.2824 58.9709 13.1058C61.7185 16.8163 63.358 20.9407 64.0715 25.4346C64.3295 27.0755 64.5724 28.7311 64.6635 30.4016C64.8153 32.9885 64.3144 35.5164 63.5705 37.9999C62.7811 40.6607 61.4453 43.0408 60.0183 45.4208C57.9386 48.8651 55.4794 51.9695 52.2763 54.4678C50.8038 55.6208 49.2403 56.626 47.4186 57.2173L47.4338 57.2321C47.3731 56.1086 46.5989 57.2913 46.3408 56.8034C46.7203 56.5521 47.1757 56.2417 47.616 55.9312C47.6767 55.9017 47.7222 55.8721 47.7829 55.8425C47.8589 55.7686 48.041 55.7539 47.9499 55.6208C47.874 55.5173 47.7374 55.5765 47.6767 55.6947C47.6311 55.7391 47.5704 55.7686 47.4945 55.7982ZM19.6537 37.1868C19.8207 37.512 19.927 37.719 20.0484 37.9259C21.3388 40.0103 23.2667 41.3703 25.3919 42.5677C28.5191 44.3269 31.7677 45.0512 35.3806 44.4451C41.7867 43.3808 45.6881 39.626 47.449 33.8903C48.4509 30.6529 47.8892 27.3268 46.3408 24.385C43.1226 18.3093 36.17 14.9241 28.8379 16.9789C19.7448 19.5363 14.9326 29.2929 20.6101 37.6007C20.6708 37.6894 20.7923 37.7781 20.6556 37.8964C20.3217 37.7338 20.2458 37.2755 19.6537 37.1868ZM38.8721 56.2712C39.206 56.3895 39.4034 56.3156 39.6007 56.2712C42.4395 55.5173 45.096 54.3938 47.5552 52.8121C53.764 48.806 57.8323 43.3808 59.3048 36.2112C59.7754 33.8903 59.4566 31.5546 59.5629 29.2337C59.6236 27.992 59.4415 26.7946 59.1227 25.5972C57.0581 17.9102 52.1701 12.3815 45.0657 8.68583C41.6804 6.94147 37.9309 6.35016 34.1206 6.2319C31.9498 6.17277 29.779 6.15799 27.669 6.7493C24.9972 7.50321 22.4621 8.56756 20.094 9.95714C17.8473 11.2876 15.6461 12.6771 13.9459 14.6876C13.3691 15.3676 12.9137 16.1067 12.5949 17.0676C13.0199 16.8606 13.1717 16.5798 13.3539 16.3285C15.6613 13.3276 18.5759 11.0658 22.113 9.61714C29.4603 6.58669 36.7924 6.86756 44.0334 9.97192C50.2573 12.6328 54.6748 16.9198 56.6938 23.365C57.468 25.8485 58.3029 28.3172 58.2422 30.9633C58.1967 32.6633 57.8172 34.319 57.6198 35.9894C57.2859 38.8277 56.7242 41.5921 54.8722 43.9573C53.931 45.1547 53.2782 46.5886 52.2156 47.7121C48.4812 51.5704 44.1852 54.586 38.8721 56.2712ZM63.3428 27.7998C63.3428 27.1346 63.4794 26.4546 63.3276 25.8189C62.4927 22.4189 61.7185 19.0189 59.6236 16.0476C57.6957 13.3128 55.8437 10.5189 53.1872 8.39017C50.0145 5.83277 46.4623 4.05885 42.3939 3.2458C39.4186 2.63971 36.4888 1.78232 33.4071 1.7971C27.9726 1.81188 22.872 3.05363 18.2116 5.77364C10.8643 10.0754 5.73335 16.0772 3.69918 24.3111C2.77318 28.0363 2.36331 31.7911 3.42594 35.6346C4.94397 41.1042 7.46391 45.9086 11.9877 49.5747C12.185 49.7373 12.3216 50.0034 12.6556 49.959C12.6556 49.8999 12.686 49.8408 12.6708 49.8112C12.1243 49.2938 11.5778 48.7912 11.0465 48.2738C4.74663 42.1686 2.46958 34.7772 3.79027 26.3068C4.73145 20.2902 8.08631 15.4711 12.0939 11.0067C12.2154 10.8737 12.3368 10.7554 12.4734 10.6519C15.0237 8.538 17.7562 6.73451 20.8378 5.41886C23.7069 4.20668 26.5912 3.03885 29.7487 2.84667C35.3806 2.49189 40.8 3.34928 45.9461 5.6406C52.6407 8.6267 57.8172 13.1798 60.9747 19.7285C62.2346 22.2859 62.9633 25.0059 63.3428 27.7998Z" fill="black"/>
<path id="Vector_2" d="M98.3011 11.3925C107.743 11.4072 115.516 17.4681 117.277 25.983C118.81 33.4778 115.121 41.1648 107.925 45.023C97.4662 50.6257 84.2441 45.6291 80.6008 34.6899C77.4888 25.3769 82.9841 15.3394 92.8514 12.2794C94.7489 11.6881 96.7224 11.4072 98.3011 11.3925ZM108.73 29.3534C108.715 24.0612 104.191 19.789 98.6351 19.8186C93.0487 19.8629 88.6312 24.1056 88.6464 29.4421C88.6616 34.6899 93.1701 38.9621 98.6958 38.9474C104.267 38.9326 108.73 34.6604 108.73 29.3534Z" fill="black"/>
<path id="Vector_3" d="M159.692 11.1532C166.781 23.2454 173.81 35.249 180.899 47.3412C178.986 47.3412 177.18 47.3412 175.374 47.3412C174.114 47.3412 172.838 47.3116 171.578 47.356C171.047 47.3707 170.789 47.1934 170.531 46.7499C166.948 40.5707 163.335 34.4063 159.723 28.2272C159.434 28.3454 159.373 28.6263 159.252 28.8333C155.685 34.7907 152.117 40.7629 148.565 46.7351C148.307 47.1638 148.049 47.3412 147.518 47.3412C144.512 47.3116 141.506 47.3264 138.394 47.3264C145.499 35.2637 152.573 23.2306 159.692 11.1532Z" fill="black"/>
<path id="Vector_4" d="M139.775 38.9457C139.259 39.7883 138.819 40.5274 138.378 41.2517C137.24 43.1291 136.086 44.9918 134.963 46.8692C134.765 47.2092 134.553 47.3422 134.143 47.3422C129.741 47.3274 125.354 47.3274 120.951 47.3422C120.435 47.3422 120.344 47.1944 120.344 46.7361C120.359 35.1761 120.359 23.6012 120.344 12.0412C120.344 11.4794 120.496 11.3464 121.058 11.3612C123.411 11.3907 125.748 11.3907 128.101 11.3612C128.693 11.3464 128.845 11.509 128.845 12.0855C128.815 20.7777 128.83 29.47 128.784 38.1622C128.784 38.7978 128.921 38.9752 129.589 38.9604C132.959 38.9309 136.283 38.9457 139.775 38.9457Z" fill="black"/>
<path id="Vector_5" d="M47.4184 57.2186C47.388 57.2482 47.3729 57.2778 47.3425 57.3074C47.3273 57.2778 47.3273 57.2482 47.3121 57.2186C47.3425 57.2186 47.388 57.2334 47.4184 57.2334C47.4336 57.2334 47.4184 57.2186 47.4184 57.2186Z" fill="black"/>
<path id="Vector_6" d="M19.6529 37.1882C20.2298 37.2769 20.3209 37.7352 20.6548 37.8978C20.7914 37.7795 20.67 37.6908 20.6093 37.6022C14.947 29.2943 19.744 19.5377 28.837 16.9803C36.154 14.9255 43.1218 18.296 46.34 24.3864C47.9036 27.343 48.4501 30.6543 47.4482 33.8917C45.6872 39.6274 41.7859 43.3674 35.3798 44.4465C31.7517 45.0526 28.5182 44.3283 25.3911 42.5691C23.2507 41.3717 21.3379 40.0117 20.0476 37.9274C19.9262 37.7204 19.8199 37.4987 19.6529 37.1882ZM43.6075 22.3021C43.6227 22.3464 43.6379 22.3908 43.6682 22.4203C43.6986 22.4056 43.7138 22.376 43.7442 22.3612C43.7138 22.3317 43.6682 22.3021 43.6379 22.2873C43.6075 22.169 43.5316 22.1395 43.4254 22.169C43.4102 22.169 43.395 22.1986 43.3798 22.2134C43.4557 22.243 43.5316 22.2725 43.6075 22.3021ZM41.8162 20.5134C41.8162 20.543 41.8314 20.5873 41.8314 20.6169C41.8618 20.6021 41.877 20.5873 41.9073 20.5725C41.877 20.5577 41.8466 20.543 41.8162 20.5134C41.7555 20.3803 41.6644 20.3064 41.4975 20.3803C41.5582 20.1438 41.3608 20.129 41.209 20.0699C41.1635 19.9369 41.0572 19.8925 40.9358 19.8777C40.8902 19.7595 40.7992 19.6856 40.6777 19.6708C40.6625 19.6708 40.6322 19.7151 40.6322 19.7299C40.6777 19.8482 40.7688 19.9221 40.9054 19.9369C40.951 20.0699 41.0572 20.0995 41.1635 20.1438C41.2394 20.2621 41.3457 20.3656 41.5126 20.3803C41.5734 20.5134 41.6796 20.5577 41.8162 20.5134ZM40.45 41.7561C40.1312 41.623 39.9794 41.8596 39.7973 42.0222C38.932 42.6578 37.8845 42.9239 36.8978 43.2935C35.8959 43.663 34.8029 43.7222 33.7707 43.9439C37.672 44.2396 40.6777 42.4213 43.395 39.9526C43.3495 39.8639 43.3495 39.79 43.4405 39.7456C43.6379 39.7752 43.7442 39.7456 43.6075 39.5239C44.0174 39.5239 44.1388 39.243 44.2147 38.9178L44.1996 38.9326C44.488 38.9178 44.488 38.6961 44.5487 38.5039C46.2944 36.0648 46.8865 33.3152 46.9624 30.403C47.0231 27.6386 45.3229 23.7212 43.6834 22.5386C44.0326 23.056 44.3058 23.4551 44.5639 23.8691C45.5962 25.5099 46.5373 27.1952 46.6284 29.176C46.8561 34.0247 45.0193 37.9717 41.1787 41.0613C41.042 41.1648 40.6929 41.1943 40.8902 41.5196V41.49C40.617 41.3422 40.4804 41.4604 40.45 41.7561ZM39.0838 21.6516C39.099 21.8586 39.2659 21.9325 39.3874 22.036C40.4045 22.9969 41.3608 24.0021 42.1502 25.1551C44.1692 28.1117 44.7309 31.1865 42.8485 34.4239C42.1958 35.5621 41.4519 36.6413 40.6474 37.6761C39.4026 39.2726 38.006 40.6178 35.987 41.283C35.1824 41.5491 34.4538 41.9926 33.6796 42.3474C38.3096 41.9039 41.7859 39.6569 43.729 35.6361C45.7631 31.4378 45.1104 27.3725 42.1199 23.7064C41.4975 22.9525 40.8751 22.2282 39.9946 21.7551C39.7365 21.6221 39.4481 21.4151 39.0838 21.6516ZM30.689 42.2587C26.2867 40.6178 22.6586 38.3561 20.4423 34.35C21.4897 38.3561 27.1065 42.7465 30.689 42.2587ZM38.598 18.5177C35.4557 17.1725 32.2526 16.5812 28.9281 17.956C32.2223 17.1282 35.4405 17.3351 38.598 18.5177ZM39.7517 19.1534C39.7669 19.1386 39.7821 19.1238 39.8124 19.109C39.7973 19.0942 39.7821 19.0647 39.7669 19.0647C39.7517 19.0647 39.7365 19.0795 39.7062 19.0942C39.7214 19.1238 39.7365 19.1386 39.7517 19.1534ZM39.5088 18.976C39.4936 18.9612 39.4785 18.9316 39.4633 18.9316C39.4481 18.9316 39.4177 18.9612 39.4026 18.976C39.4177 18.9908 39.4329 19.0203 39.4481 19.0203C39.4785 19.0056 39.4936 18.9908 39.5088 18.976ZM39.2052 18.8282C39.19 18.8134 39.1749 18.7838 39.1597 18.7838C39.1445 18.7838 39.1141 18.8134 39.099 18.8282C39.1141 18.8429 39.1293 18.8725 39.1597 18.8725C39.1749 18.8725 39.19 18.8429 39.2052 18.8282ZM38.8409 18.636C38.8257 18.6508 38.8105 18.6656 38.8105 18.6803C38.8257 18.6951 38.8409 18.7099 38.8561 18.7247C38.8713 18.6951 38.8713 18.6656 38.8864 18.6508C38.8713 18.636 38.8561 18.636 38.8409 18.636Z" fill="#D5DA31"/>
<path id="Vector_7" d="M40.9049 41.5028C41.6487 41.1923 42.2104 40.6157 42.8328 40.1573C42.9846 40.0538 43.0757 39.6398 43.3945 39.9651C40.6772 42.4195 37.6715 44.2381 33.7701 43.9572C34.8024 43.7354 35.8954 43.6762 36.8973 43.3066C37.884 42.9518 38.9315 42.6856 39.7967 42.0351C40.07 42.0794 40.2977 42.0203 40.4495 41.7689C40.662 41.7541 40.829 41.6802 40.9049 41.488V41.5028Z" fill="black"/>
<path id="Vector_8" d="M43.6227 39.5228C43.7441 39.2415 43.8807 38.9751 44.2299 38.9159C44.154 39.2415 44.0326 39.5228 43.6227 39.5228Z" fill="black"/>
<path id="Vector_9" d="M44.2146 38.932C44.1538 38.6508 44.336 38.562 44.5637 38.5028C44.503 38.6952 44.503 38.9172 44.2146 38.932Z" fill="black"/>
<path id="Vector_10" d="M43.4563 39.7453C43.3956 39.5973 43.4867 39.5381 43.6233 39.5233C43.7751 39.7305 43.6536 39.7601 43.4563 39.7453Z" fill="black"/>
</g>
</svg>
